<svg xmlns="http://www.w3.org/2000/svg" width="583" height="720" viewBox="0 0 392.164 484.439"><path fill="#369" d="M0 0h392.164v484.439H0z"/><path fill="#231F20" d="M197.84 68.301c-54.555 6.117-139.949 33.596-37.947 76.346 49.816 21.375-120.973-42.75 37.947-54.963M195.471 272.91c54.555-6.117 139.957-36.646 37.955-79.396-49.816-21.382 120.973 45.802-37.955 54.963"/><path fill="#231F20" d="M195.471 156.867c158.928-9.162-11.861-76.346 37.955-54.971 102.002 42.75 16.6 73.294-37.955 79.396h4.746c-158.928 9.162 9.492 73.295-40.324 51.92-99.626-42.758-16.607-70.242 40.324-76.346"/><path fill="#FFF" d="M197.84 65.25c-56.925 6.109-139.949 33.596-40.316 76.346 52.186 21.375-118.604-42.75 40.316-51.912M193.102 269.852c56.924-6.109 139.949-36.639 40.324-79.396-49.816-21.375 118.603 45.809-40.324 54.963"/><path fill="#FFF" d="M195.471 153.815c156.558-9.169-11.861-76.345 37.955-54.97 99.625 42.75 16.6 73.286-40.324 79.396h4.738c-158.92 9.162 11.869 73.287-37.947 51.912-102.002-42.75-16.607-70.236 37.947-76.339"/><g fill="#FFF"><path d="M76.217 382.443c2.42-1.383 2.881-2.073 3.571-5.99 2.074-12.097 3.341-40.667 3.341-47.35 0-9.446-.114-9.331-2.188-11.75-2.995-3.687-5.069-4.724-6.566-5.185v-.461c2.765.346 5.99.461 8.295.461 2.649 0 5.99-.23 7.604-.461 15.552 23.502 33.179 42.165 46.427 57.372.115-1.498.115-9.102.115-14.977-.23-15.553-.576-32.948-2.188-38.018-.807-2.419-1.959-3.571-3.457-3.917v-.461c3.111.23 6.567.461 9.908.461 3.11 0 4.838-.23 6.566-.461v.461c-1.613.576-2.419 1.383-3.226 4.493-1.729 6.336-3.917 53.224-4.493 66.242-.576-.115-1.152-.115-1.728-.115-.691 0-1.268 0-1.844.115-14.4-16.475-37.441-42.741-48.731-57.947l-.23.23c.115 7.948.576 38.823 2.189 51.841.346 2.996.807 4.378 2.88 5.415v.461c-2.765-.346-5.53-.461-8.295-.461-2.649 0-5.299.23-7.949.461v-.459zM212.96 328.759c0-2.074-.23-4.263-2.419-6.337-4.608-4.263-12.673-5.76-17.051-5.76-6.682 0-11.29.691-14.861 2.765-7.373 4.378-8.985 16.82-8.985 24.884 0 21.773 12.787 30.299 29.146 30.299 9.907 0 15.782-4.147 18.663-6.451.461.807 1.151 1.728 1.497 2.073-5.645 4.839-7.834 7.488-11.636 12.558-2.304.576-3.917 1.152-10.022 1.152-21.658 0-37.441-12.558-37.441-35.944 0-23.731 16.705-37.326 39.17-37.326 8.64 0 15.092 1.844 17.972 1.844h1.151c-1.497 2.995-3.341 8.871-3.341 16.244h-1.843zM254.775 383.941c-1.959 0-4.954-.346-7.719-.807-2.881-.346-5.646-.691-7.373-.691-2.189 0-8.295.346-9.332.461v-.461c1.729-.23 3.226-1.844 3.802-4.954.691-3.687 1.268-10.368 1.268-30.183 0-31.451-1.152-34.216-5.069-35.138v-.461c.576 0 2.305.115 4.263.23 1.959.115 4.032.23 5.069.23 1.958 0 5.184-.346 8.755-.807 3.571-.346 7.604-.691 11.06-.691 12.097 0 18.202 4.839 18.202 14.632 0 7.718-5.529 12.787-12.672 18.547 6.566.807 18.663 4.724 18.663 17.512 0 5.76-1.959 10.829-5.991 14.285-6.222 5.416-12.097 8.296-22.926 8.296zm-10.023-67.855c-.691 4.608-.691 14.631-.691 27.188 3.688 0 15.207 0 16.705-.346 2.073-1.613 7.143-5.876 7.143-13.134 0-9.446-6.221-14.516-15.783-14.516-2.535.001-4.954.347-7.374.808zm-.691 31.105c0 7.948 0 20.852.691 27.994 3.11 1.729 7.949 4.147 15.322 4.147 4.378 0 7.949-1.037 9.793-2.419 2.995-2.189 4.031-8.525 4.031-11.29 0-11.636-8.524-18.778-20.736-18.778-2.995.001-7.027.346-9.101.346zM315.254 312.169c-4.147 1.037-5.068 4.493-5.068 35.138 0 31.45 1.151 34.1 5.068 35.137v.461c-1.037-.115-7.143-.461-9.446-.461-2.189 0-8.295.346-9.332.461v-.461c4.032-.922 5.069-4.493 5.069-35.137 0-31.105-1.152-34.216-5.069-35.138v-.461c1.037.115 7.143.461 9.332.461 2.304 0 8.409-.346 9.446-.461v.461z"/></g></svg>
